<svg width="800.0000000000001" height="600" xmlns="http://www.w3.org/2000/svg">

 <metadata>image/svg+xmlOpenclipartRabbit Silhouette2011-01-31T13:34:00Black Silhouette of the rabbit.https://openclipart.org/detail/116629/rabbit-silhouette-by-kubakubablackchinesenewyear2011new yearrabbitsilhouette?</metadata>
 <g display="inline" id="imagebot_2">
  <title>Layer 2</title>
  <circle r="NaN" cy="172" cx="414" id="imagebot_6" stroke-opacity="null" stroke-linecap="null" stroke-linejoin="null" stroke-dasharray="null" stroke-width="null" fill="#ffffff"/>
  <circle r="NaN" cy="141" cx="383" id="imagebot_7" stroke-opacity="null" stroke-linecap="null" stroke-linejoin="null" stroke-dasharray="null" stroke-width="null" fill="#ffffff"/>
  <path d="M383,141 C 383,146,383,153,383,169 383,198,383,215,383,229 383,242,383,255,383,262 383,266,383,271,383,275 L 383,279 381,282" id="imagebot_8" stroke-opacity="null" stroke-linecap="null" stroke-linejoin="null" stroke-dasharray="null" stroke-width="null" stroke="#ffffff" fill="none"/>
  <circle r="NaN" cy="282" cx="381" id="imagebot_9" stroke-opacity="null" stroke-linecap="null" stroke-linejoin="null" stroke-dasharray="null" stroke-width="null" fill="#ffffff"/>
  <circle r="NaN" cy="282" cx="400" id="imagebot_10" stroke-opacity="null" stroke-linecap="null" stroke-linejoin="null" stroke-dasharray="null" stroke-width="null" fill="#ffffff"/>
  <path d="M118.481,379.866 L174.207,138.719 L399.828,31.3977 L625.45,138.719 L681.178,379.866 L525.038,573.253 L274.619,573.253 L118.48,379.866 L118.481,379.866 z" id="imagebot_27" stroke-linecap="null" stroke-linejoin="null" stroke-dasharray="null" stroke-width="50" stroke="#7f003f" fill="#76b5e7"/>
 </g>
 <g display="inline">
  <title>Layer 1</title>
  <path fill="#ffffff" d="M416.746,113.398 C410.279,113.302 405.262,116.33 405.262,122.505 C405.262,130.105 403.34,162.402 406.19,172.852 S420.444,198.588 428.984,208.958 C435.634,217.033 431.856,236.493 431.856,245.993 S429.942,263.104 426.142,263.104 S416.66,266.903 412.86,270.702 C409.06,274.502 405.255,279.258 400.505,275.458 C395.756,271.659 387.196,267.868 371.997,265.018 C356.798,262.168 331.159,265.003 315.009,270.702 S264.649,307.757 255.15,322.006 C245.65,336.255 244.716,379.942 245.666,386.592 C246.616,393.242 243.745,398.005 238.996,392.305 C234.246,386.605 230.469,389.463 230.469,389.463 S225.713,398.953 225.713,403.703 C225.713,408.452 227.598,413.187 227.598,413.187 S220,418.899 220,422.699 C220,426.499 227.605,433.153 232.354,438.853 C237.104,444.553 253.256,455.957 259.906,455.006 C266.556,454.056 278.908,454.998 283.659,457.848 C288.408,460.698 299.803,464.497 314.052,465.446 C328.301,466.397 368.188,469.245 378.638,469.245 S391.956,467.354 396.706,462.604 C401.455,457.855 392.885,452.143 390.035,445.494 C387.185,438.844 399.547,440.759 403.347,439.809 S417.607,432.211 424.257,432.211 S429.947,438.852 438.497,442.651 C447.047,446.451 459.391,458.79 468.89,460.69 S500.24,460.698 507.839,457.848 C515.439,454.998 514.489,448.358 507.839,443.608 C501.189,438.859 485.052,430.29 482.202,425.54 C479.352,420.791 478.41,415.093 483.159,410.344 C487.909,405.594 492.642,407.502 500.241,403.702 C507.841,399.902 510.682,388.485 510.682,381.835 C510.682,375.185 511.586,367.958 514.481,363.796 C516.907,360.309 517.849,349.181 517.984,341.581 C518.129,333.466 514.489,331.511 511.639,326.762 C508.789,322.012 514.48,315.364 518.28,315.364 C522.08,315.364 539.182,312.501 545.832,309.651 C552.481,306.801 559.149,294.441 563.899,288.741 C568.65,283.041 564.836,270.703 558.187,266.903 S551.532,252.643 545.832,245.993 S533.493,225.105 527.793,220.356 C522.094,215.606 508.791,211.801 504.041,211.801 C499.291,211.801 496.443,211.801 496.443,208.001 S495.486,199.469 495.486,190.919 S484.759,145.706 470.806,123.462 C467.895,118.821 463.173,119.892 457.494,121.548 C453.733,122.644 451.809,124.424 451.809,136.773 C451.809,149.123 444.211,136.753 440.412,130.103 S429.936,115.849 421.387,113.949 C419.784,113.593 418.239,113.42 416.746,113.398 L416.746,113.398 z" id="imagebot_1"/>
  <circle r="NaN" cy="216" cx="237" id="imagebot_11" stroke-opacity="null" stroke-linecap="null" stroke-linejoin="null" stroke-dasharray="null" stroke-width="null" fill="#ffffff"/>
 </g>
</svg>