<svg width="524" height="539" xmlns="http://www.w3.org/2000/svg">

 <metadata>image/svg+xmlOpenclipartRabbit Silhouette2011-01-31T13:34:00Black Silhouette of the rabbit.https://openclipart.org/detail/116629/rabbit-silhouette-by-kubakubablackchinesenewyear2011new yearrabbitsilhouette?</metadata>
 <g display="inline" id="imagebot_2">
  <title>Layer 2</title>
  <rect id="imagebot_4" height="165" width="150" y="62" x="148" stroke-linecap="null" stroke-linejoin="null" stroke-dasharray="null" stroke-width="null" stroke="#ffffff" fill="#ffffff"/>
  <rect id="imagebot_5" height="554.75441" width="554.16526" y="-0.26008" x="-21.00006" stroke-linecap="null" stroke-linejoin="null" stroke-dasharray="null" stroke-width="null" stroke="#ffffff" fill="#000000"/>
  <circle r="NaN" cy="172" cx="414" id="imagebot_6" stroke-opacity="null" stroke-linecap="null" stroke-linejoin="null" stroke-dasharray="null" stroke-width="null" fill="#ffffff"/>
  <circle r="NaN" cy="141" cx="383" id="imagebot_7" stroke-opacity="null" stroke-linecap="null" stroke-linejoin="null" stroke-dasharray="null" stroke-width="null" fill="#ffffff"/>
  <path d="M383,141 C 383,146,383,153,383,169 383,198,383,215,383,229 383,242,383,255,383,262 383,266,383,271,383,275 L 383,279 381,282" id="imagebot_8" stroke-opacity="null" stroke-linecap="null" stroke-linejoin="null" stroke-dasharray="null" stroke-width="null" stroke="#ffffff" fill="none"/>
  <circle r="NaN" cy="282" cx="381" id="imagebot_9" stroke-opacity="null" stroke-linecap="null" stroke-linejoin="null" stroke-dasharray="null" stroke-width="null" fill="#ffffff"/>
  <circle r="NaN" cy="282" cx="400" id="imagebot_10" stroke-opacity="null" stroke-linecap="null" stroke-linejoin="null" stroke-dasharray="null" stroke-width="null" fill="#ffffff"/>
 </g>
 <g display="inline">
  <title>Layer 1</title>
  <path fill="#ffffff" d="M297.93,0.00338364 C288.137,-0.142717 280.539,4.44288 280.539,13.7934 C280.539,25.3014 277.629,74.2084 281.944,90.0324 S303.53,129.004 316.462,144.708 C326.531,156.935 320.81,186.404 320.81,200.789 S317.912,226.7 312.158,226.7 S297.799,232.452 292.045,238.206 C286.291,243.96 280.529,251.162 273.336,245.408 C266.144,239.654 253.183,233.914 230.167,229.598 C207.151,225.283 168.326,229.575 143.871,238.206 S67.6112,294.317 53.2267,315.894 C38.8417,337.472 37.4277,403.626 38.8657,413.696 C40.3042,423.766 35.9574,430.979 28.7647,422.347 C21.5722,413.716 15.8537,418.044 15.8537,418.044 S8.6514,432.414 8.6514,439.607 C8.6514,446.799 11.506,453.968 11.506,453.968 S0,462.618 0,468.373 C0,474.127 11.516,484.203 18.708,492.834 C25.9005,501.465 50.359,518.734 60.429,517.295 C70.4992,515.856 89.2042,517.283 96.3972,521.598 C103.589,525.914 120.844,531.666 142.421,533.104 C163.999,534.543 224.399,538.857 240.223,538.857 S260.391,535.993 267.583,528.8 C274.775,521.608 261.797,512.959 257.482,502.89 C253.166,492.82 271.886,495.72 277.64,494.282 S299.234,482.776 309.304,482.776 S317.92,492.832 330.867,498.586 C343.814,504.34 362.506,523.025 376.891,525.902 S424.363,525.914 435.871,521.598 C447.379,517.283 445.94,507.228 435.871,500.035 C425.801,492.843 401.364,479.868 397.049,472.675 C392.733,465.483 391.306,456.855 398.498,449.663 C405.691,442.471 412.857,445.36 424.365,439.606 C435.873,433.852 440.175,416.562 440.175,406.493 C440.175,396.423 441.544,385.479 445.928,379.177 C449.602,373.896 451.028,357.045 451.233,345.537 C451.452,333.248 445.94,330.288 441.624,323.096 C437.309,315.904 445.927,305.837 451.681,305.837 C457.435,305.837 483.332,301.501 493.402,297.186 C503.471,292.87 513.569,274.153 520.762,265.522 C527.955,256.891 522.18,238.207 512.111,232.453 S502.034,210.859 493.403,200.789 S474.718,169.159 466.087,161.967 C457.456,154.774 437.312,149.012 430.119,149.012 C422.926,149.012 418.613,149.013 418.613,143.259 S417.164,130.339 417.164,117.392 S400.921,48.9269 379.791,15.2419 C375.383,8.21458 368.233,9.83658 359.633,12.3434 C353.939,14.0033 351.025,16.699 351.025,35.3994 C351.025,54.1004 339.52,35.3681 333.766,25.2984 S317.903,3.71438 304.957,0.837383 C302.53,0.297983 300.19,0.036684 297.93,0.00298309 L297.93,0.00338364 z" id="imagebot_1"/>
  <circle r="NaN" cy="216" cx="237" id="imagebot_11" stroke-opacity="null" stroke-linecap="null" stroke-linejoin="null" stroke-dasharray="null" stroke-width="null" fill="#ffffff"/>
 </g>
</svg>